<svg width="185" height="185" viewBox="0 0 185 185" fill="none" xmlns="http://www.w3.org/2000/svg">
<rect width="185" height="185" rx="32" fill="black"/>
<path d="M101.364 45.9091H120.818V110.818C120.818 116.818 119.47 122.03 116.773 126.455C114.106 130.879 110.394 134.288 105.636 136.682C100.879 139.076 95.3485 140.273 89.0455 140.273C83.4394 140.273 78.3485 139.288 73.7727 137.318C69.2273 135.318 65.6212 132.288 62.9545 128.227C60.2879 124.136 58.9697 119 59 112.818H78.5909C78.6515 115.273 79.1515 117.379 80.0909 119.136C81.0606 120.864 82.3788 122.197 84.0455 123.136C85.7424 124.045 87.7424 124.5 90.0455 124.5C92.4697 124.5 94.5152 123.985 96.1818 122.955C97.8788 121.894 99.1667 120.348 100.045 118.318C100.924 116.288 101.364 113.788 101.364 110.818V45.9091Z" fill="white"/>
</svg>
