<?xml version="1.0" encoding="utf-8"?>
<!-- Generator: Adobe Illustrator 27.2.0, SVG Export Plug-In . SVG Version: 6.00 Build 0)  -->
<svg version="1.1" id="Layer_1" xmlns="http://www.w3.org/2000/svg" xmlns:xlink="http://www.w3.org/1999/xlink" x="0px" y="0px"
	 viewBox="0 0 24 24" style="enable-background:new 0 0 24 24;" xml:space="preserve">
<style type="text/css">
	.st0{fill-rule:evenodd;clip-rule:evenodd;}
</style>
<path class="st0" d="M0.4,12.1l0.9,2.2c0.1,0.2,0.3,0.3,0.5,0.3L7,14.7c0.7,0,1.7-0.4,2.3-0.9l3.9-3.7c0.5-0.5,0.7-1.3,0.5-1.9
	l-1.4-3.8l-0.8,0l0.4,1c0.2,0.5,0.1,1.2-0.3,1.5l-4.8,4.5c-0.4,0.4-1.1,0.6-1.6,0.6L0.4,12.1z M9.6,15.7c-0.1-0.4,0-0.9,0.3-1.1
	l4.6-4.1c0.1-0.1,0.4-0.2,0.6-0.2l7.3-0.1c0.3,0,0.6,0.2,0.7,0.4l0.4,0.8c0.1,0.1,0,0.2-0.1,0.2l-6.1,0.1c-0.3,0-0.6,0.1-0.8,0.3
	L12,16c-0.2,0.2-0.4,0.6-0.3,1l0.8,2.4c0,0.1,0,0.2-0.2,0.2l-1.1,0c-0.1,0-0.1-0.1-0.2-0.1L9.6,15.7z"/>
</svg>
